<?xml version="1.0" encoding="UTF-8"?>
<svg width="500" height="500" xmlns="http://www.w3.org/2000/svg">
    <rect fill="#ffffff"
          width="600"
          height="600"/>
    <rect fill="#6399f7"
          width="120" height="60"
          x="130" y="190"/>
    <path d="M 250 130 A 120 120 0 0 1 370 250 L 250 250 Z" fill="#6399f7"/>
    <polygon fill="#6399f7" points="250,250 370,250, 250,310"/>
    <line stroke="black" stroke-width="3"
          x1="20" y1="250"
          x2="480" y2="250"/>
    <line stroke="black" stroke-width="3"
          x1="250" y1="20"
          x2="250" y2="480"/>

    <line stroke="black" stroke-width="3"
          x1="370" y1="253"
          x2="370" y2="247"/>
    <line stroke="black" stroke-width="3"
          x1="310" y1="253"
          x2="310" y2="247"/>
    <line stroke="black" stroke-width="3"
          x1="190" y1="253"
          x2="190" y2="247"/>
    <line stroke="black" stroke-width="3"
          x1="130" y1="253"
          x2="130" y2="247"/>

    <line stroke="black" stroke-width="3"
          x1="253" y1="370"
          x2="247" y2="370"/>
    <line stroke="black" stroke-width="3"
          x1="253" y1="310"
          x2="247" y2="310"/>
    <line stroke="black" stroke-width="3"
          x1="253" y1="190"
          x2="247" y2="190"/>
    <line stroke="black" stroke-width="3"
          x1="253" y1="130"
          x2="247" y2="130"/>

    <text x="120" y="240" font-size="20" font-family="monospace">-R</text>
    <text x="180" y="240" font-size="20" font-family="monospace">-R/2</text>
    <text x="300" y="240" font-size="20" font-family="monospace">R/2</text>
    <text x="360" y="240" font-size="20" font-family="monospace">R</text>
    <text x="257" y="135" font-size="20" font-family="monospace">R</text>
    <text x="257" y="195" font-size="20" font-family="monospace">R/2</text>
    <text x="257" y="315" font-size="20" font-family="monospace">-R/2</text>
    <text x="257" y="375" font-size="20" font-family="monospace">-R</text>
</svg>